<svg fill="none" height="568" viewBox="0 0 2000 568" width="2000" xmlns="http://www.w3.org/2000/svg" xmlns:xlink="http://www.w3.org/1999/xlink"><clipPath id="a"><path d="m0 0h2000v568h-2000z"/></clipPath><clipPath id="b"><path d="m0 0h258.5v179h-258.5z" transform="matrix(.00000001 1 1 -.00000001 386 60.5)"/></clipPath><clipPath id="c"><path d="m0 0h517v358h-517z" transform="matrix(0 -1 1 0 1462 517)"/></clipPath><clipPath id="d"><path d="m0 0h258.5v179h-258.5z" transform="matrix(0 -1 1 0 1399.5 319)"/></clipPath><clipPath id="e"><path d="m0 0h258.5v179h-258.5z" transform="matrix(0 -1 1 0 1399.5 581.5)"/></clipPath><clipPath id="f"><path d="m1262 445.5h258.5v179h-258.5z"/></clipPath><g clip-path="url(#a)"><path d="m0 0h2000v568h-2000z" fill="#fff"/><ellipse fill="#f5fcff" rx="8" ry="8" transform="matrix(-1 .00000009 .00000009 1 595 308.5)"/><ellipse fill="#fcfaff" rx="8" ry="8" transform="matrix(1 -.00000017 -.00000017 -1 575 268)"/><circle fill="#f5fcff" r="8" transform="matrix(1 -.00000017 -.00000017 -1 555 288.498)"/><ellipse fill="#f5fcff" rx="8" ry="8" transform="matrix(-1 .00000009 .00000009 1 595 328)"/><ellipse fill="#f5fcff" rx="8" ry="8" transform="matrix(1 -.00000017 -.00000017 -1 555 248)"/><ellipse fill="#fcfaff" rx="8" ry="8" transform="matrix(1 -.00000017 -.00000017 -1 595 288.5)"/><ellipse fill="#f5fcff" rx="8" ry="8" transform="matrix(-1 .00000009 .00000009 1 495 288.5)"/><circle fill="#fed038" r="8" transform="matrix(-1 .00000009 .00000009 1 515 308)"/><ellipse fill="#fcfaff" rx="8" ry="8" transform="matrix(-1 .00000009 .00000009 1 575 328)"/><ellipse fill="#f6edfa" rx="8" ry="8" transform="matrix(-1 .00000009 .00000009 1 495 328)"/><ellipse fill="#f5fcff" rx="8" ry="8" transform="matrix(1 -.00000017 -.00000017 -1 535 248)"/><ellipse fill="#dbf0ff" rx="8" ry="8" transform="matrix(1 -.00000017 -.00000017 -1 515 348.5)"/><ellipse fill="#f5fcff" rx="8" ry="8" transform="matrix(1 -.00000017 -.00000017 -1 495 268.5)"/><ellipse fill="#fcfaff" rx="16" ry="16" transform="matrix(.00000013 1 1 -.00000013 362 176)"/><ellipse fill="#f5fcff" rx="16" ry="16" transform="matrix(-.00000004 -1 -1 .00000004 282 296)"/><circle fill="#fcfaff" r="16" transform="matrix(.00000013 1 1 -.00000013 321.004 176)"/><ellipse fill="#b17acc" rx="16" ry="16" transform="matrix(-.00000004 -1 -1 .00000004 242 256)"/><ellipse fill="#f5fcff" rx="16" ry="16" transform="matrix(.00000013 1 1 -.00000013 402 176)"/><ellipse fill="#f5fcff" rx="16" ry="16" transform="matrix(-.00000004 -1 -1 .00000004 321 296)"/><ellipse fill="#fcfaff" rx="16" ry="16" transform="matrix(.00000013 1 1 -.00000013 321 256)"/><ellipse fill="#bce939" rx="16" ry="16" transform="matrix(.00000013 1 1 -.00000013 361 416)"/><ellipse fill="#f5fcff" rx="16" ry="16" transform="matrix(-.00000004 -1 -1 .00000004 282 95.9999)"/><ellipse fill="#fcfaff" rx="16" ry="16" transform="matrix(.00000013 1 1 -.00000013 321 336)"/><ellipse fill="#f5fcff" rx="16" ry="16" transform="matrix(-.00000004 -1 -1 .00000004 282 256)"/><ellipse fill="#fcfaff" rx="16" ry="16" transform="matrix(.00000013 1 1 -.00000013 281 376)"/><ellipse fill="#f5fcff" rx="16" ry="16" transform="matrix(.00000013 1 1 -.00000013 441 376)"/><ellipse fill="#f5fcff" rx="16" ry="16" transform="matrix(.00000013 1 1 -.00000013 402 136)"/><circle fill="#dbf0ff" r="16" transform="matrix(-.00000004 -1 -1 .00000004 196 376)"/><ellipse fill="#f5fcff" rx="16" ry="16" transform="matrix(.00000013 1 1 -.00000013 361 56.0001)"/><ellipse fill="#f5fcff" rx="8" ry="8" transform="matrix(-.00000004 -1 -1 .00000004 414.5 451)"/><ellipse fill="#fcfaff" rx="8" ry="8" transform="matrix(.00000013 1 1 -.00000013 494.5 431)"/><ellipse fill="#f5fcff" rx="8" ry="8" transform="matrix(-.00000004 -1 -1 .00000004 454.5 471)"/><circle fill="#dbf0ff" r="8" transform="matrix(.00000013 1 1 -.00000013 454.502 411)"/><ellipse fill="#fcfaff" rx="8" ry="8" transform="matrix(-.00000004 -1 -1 .00000004 394.5 471)"/><ellipse fill="#fcfaff" rx="8" ry="8" transform="matrix(-.00000004 -1 -1 .00000004 454.5 491)"/><circle fill="#fcfaff" r="8" transform="matrix(.00000013 1 1 -.00000013 534.5 410.5)"/><ellipse fill="#f5fcff" rx="8" ry="8" transform="matrix(-.00000004 -1 -1 .00000004 434.5 288)"/><circle fill="#f5fcff" r="8" transform="matrix(.00000013 1 1 -.00000013 514.502 531)"/><circle fill="#f5fcff" r="8" transform="matrix(-.00000004 -1 -1 .00000004 554.5 390.5)"/><circle fill="#f5fcff" r="8" transform="matrix(.00000013 1 1 -.00000013 494.502 491)"/><ellipse fill="#fcfaff" rx="8" ry="8" transform="matrix(-.00000004 -1 -1 .00000004 454.5 348)"/><ellipse fill="#f5fcff" rx="8" ry="8" transform="matrix(.00000013 1 1 -.00000013 494.502 511)"/><ellipse fill="#fcfaff" rx="8" ry="8" transform="matrix(-.00000004 -1 -1 .00000004 434.5 348)"/><circle fill="#fcfaff" r="8" transform="matrix(.00000013 1 1 -.00000013 514.502 511)"/><ellipse fill="#f5fcff" rx="8" ry="8" transform="matrix(-.00000004 -1 -1 .00000004 394.5 491)"/><ellipse fill="#f5fcff" rx="8" ry="8" transform="matrix(.00000013 1 1 -.00000013 514.5 391)"/><ellipse fill="#f5fcff" rx="8" ry="8" transform="matrix(-.00000004 -1 -1 .00000004 411.5 511)"/><ellipse fill="#f5fcff" rx="8" ry="8" transform="matrix(.00000013 1 1 -.00000013 494 371)"/><circle fill="#fcfaff" r="8" transform="matrix(-.00000004 -1 -1 .00000004 411.5 531)"/><ellipse fill="#fcfaff" rx="8" ry="8" transform="matrix(.00000013 1 1 -.00000013 494.002 351)"/><g clip-path="url(#b)"><circle fill="#fcfaff" r="8" transform="matrix(.00000019 1 1 -.00000019 494.5 168.5)"/><ellipse fill="#dbf0ff" rx="8" ry="8" transform="matrix(-.0000001 -1 -1 .0000001 454.5 208.5)"/><ellipse fill="#fcfaff" rx="8" ry="8" transform="matrix(.00000019 1 1 -.00000019 454.502 148.5)"/><ellipse fill="#fcfaff" rx="8" ry="8" transform="matrix(-.0000001 -1 -1 .0000001 394.5 208.5)"/><ellipse fill="#fcfaff" rx="8" ry="8" transform="matrix(.00000019 1 1 -.00000019 514.5 148.5)"/><ellipse fill="#fcfaff" rx="8" ry="8" transform="matrix(-.0000001 -1 -1 .0000001 454.5 228.5)"/><ellipse fill="#fffafd" rx="8" ry="8" transform="matrix(.00000019 1 1 -.00000019 434.5 128.5)"/><ellipse fill="#fcfaff" rx="8" ry="8" transform="matrix(-.0000001 -1 -1 .0000001 434.5 68.4999)"/><ellipse fill="#fcfaff" rx="8" ry="8" transform="matrix(.00000019 1 1 -.00000019 514.502 268.5)"/><ellipse fill="#f67300" rx="8" ry="8" transform="matrix(-.0000001 -1 -1 .0000001 454.5 108.5)"/><ellipse fill="#fcfaff" rx="8" ry="8" transform="matrix(.00000019 1 1 -.00000019 494.502 228.5)"/><circle fill="#fcfaff" r="8" transform="matrix(-.0000001 -1 -1 .0000001 454.5 88.5002)"/><ellipse fill="#fcfaff" rx="8" ry="8" transform="matrix(.00000019 1 1 -.00000019 494.502 248.5)"/><ellipse fill="#dbf0ff" rx="8" ry="8" transform="matrix(-.0000001 -1 -1 .0000001 434.5 88.4999)"/><ellipse fill="#fcfaff" rx="8" ry="8" transform="matrix(.00000019 1 1 -.00000019 514.502 248.5)"/><ellipse fill="#f6edfa" rx="8" ry="8" transform="matrix(-.0000001 -1 -1 .0000001 394.5 228.5)"/><g fill="#fcfaff"><ellipse rx="8" ry="8" transform="matrix(.00000019 1 1 -.00000019 514.5 128.5)"/><circle r="8" transform="matrix(-.0000001 -1 -1 .0000001 411.5 248.5)"/><ellipse rx="8" ry="8" transform="matrix(.00000019 1 1 -.00000019 494 108.5)"/><circle r="8" transform="matrix(-.0000001 -1 -1 .0000001 411.5 268.5)"/><ellipse rx="8" ry="8" transform="matrix(.00000019 1 1 -.00000019 494.002 88.5001)"/></g><ellipse fill="#f5fcff" rx="8" ry="8" transform="matrix(-1 .00000009 .00000009 1 475 148.5)"/><ellipse fill="#fcfaff" rx="8" ry="8" transform="matrix(-1 .00000009 .00000009 1 475 129)"/><ellipse fill="#f5fcff" rx="8" ry="8" transform="matrix(1 -.00000017 -.00000017 -1 495 129)"/><circle fill="#fcfaff" r="8" transform="matrix(1 -.00000017 -.00000017 -1 515 69.0002)"/><ellipse fill="#f5fcff" rx="8" ry="8" transform="matrix(-1 .00000009 .00000009 1 515 191.5)"/></g><ellipse fill="#f5fcff" rx="8" ry="8" transform="matrix(1 -.00000017 -.00000017 -1 574.5 474)"/><ellipse fill="#f5fcff" rx="8" ry="8" transform="matrix(1 -.00000017 -.00000017 -1 554.5 514)"/><ellipse fill="#fcfaff" rx="8" ry="8" transform="matrix(-1 .00000026 .00000026 1 614.5 514.002)"/><ellipse fill="#fcfaff" rx="8" ry="8" transform="matrix(1 -.00000017 -.00000017 -1 554.5 454)"/><ellipse fill="#f6edfa" rx="8" ry="8" transform="matrix(-1 .00000026 .00000026 1 614.5 574)"/><ellipse fill="#dbf0ff" rx="8" ry="8" transform="matrix(1 -.00000017 -.00000017 -1 534.5 514)"/><ellipse fill="#fcfaff" rx="8" ry="8" transform="matrix(-1 .00000026 .00000026 1 634.5 494)"/><g fill="#f5fcff"><ellipse rx="8" ry="8" transform="matrix(1 -.00000017 -.00000017 -1 694.5 494)"/><ellipse rx="8" ry="8" transform="matrix(-1 .00000026 .00000026 1 494.5 574.002)"/><ellipse rx="8" ry="8" transform="matrix(1 -.00000017 -.00000017 -1 654.5 514)"/><circle r="8" transform="matrix(-1 .00000026 .00000026 1 534.5 554.002)"/><ellipse rx="8" ry="8" transform="matrix(1 -.00000017 -.00000017 -1 674.5 514)"/></g><ellipse fill="#fcfaff" rx="8" ry="8" transform="matrix(-1 .00000026 .00000026 1 514.5 554.002)"/><ellipse fill="#fcfaff" rx="8" ry="8" transform="matrix(1 -.00000017 -.00000017 -1 674.5 494)"/><ellipse fill="#f5fcff" rx="8" ry="8" transform="matrix(1 -.00000017 -.00000017 -1 534.5 454)"/><ellipse fill="#fcfaff" rx="8" ry="8" transform="matrix(-1 .00000026 .00000026 1 634.5 574)"/><circle fill="#f5fcff" r="8" transform="matrix(1 -.00000017 -.00000017 -1 514.5 471)"/><ellipse fill="#f5fcff" rx="8" ry="8" transform="matrix(1 -.00000017 -.00000017 -1 494.5 471)"/><ellipse fill="#fcfaff" rx="8" ry="8" transform="matrix(-1 .00000026 .00000026 1 674.5 553.502)"/><ellipse cx="1369.5" cy="308.5" fill="#fffafd" rx="8" ry="8"/><ellipse cx="1389.5" cy="268" fill="#f5fcff" rx="8" ry="8" transform="matrix(-1 0 0 -1 2779 536)"/><ellipse cx="1349.5" cy="308" fill="#fffafd" rx="8" ry="8"/><circle cx="1409.5" cy="288.498" fill="#fffafd" r="8" transform="matrix(-1 0 0 -1 2819 576.996)"/><ellipse cx="1369.5" cy="328" fill="#fffafd" rx="8" ry="8"/><ellipse cx="1409.5" cy="248" fill="#fffafd" rx="8" ry="8" transform="matrix(-1 0 0 -1 2819 496)"/><ellipse cx="1349.5" cy="288.5" fill="#f5fcff" rx="8" ry="8"/><ellipse cx="1369.5" cy="288.5" fill="#f5fcff" rx="8" ry="8" transform="matrix(-1 0 0 -1 2739 577)"/><ellipse cx="1469.5" cy="288.5" fill="#fffafd" rx="8" ry="8"/><circle cx="1449.5" cy="308" fill="#fffafd" r="8"/><ellipse cx="1329.5" cy="288.5" fill="#fffafd" rx="8" ry="8" transform="matrix(-1 0 0 -1 2659 577)"/><ellipse cx="1389.5" cy="328" fill="#f6edfa" rx="8" ry="8"/><ellipse cx="1469.5" cy="328" fill="#f5fcff" rx="8" ry="8"/><circle cx="1309.5" cy="228.5" fill="#f5fcff" r="8" transform="matrix(-1 0 0 -1 2619 457)"/><ellipse cx="1429.5" cy="248" fill="#fffafd" rx="8" ry="8" transform="matrix(-1 0 0 -1 2859 496)"/><ellipse cx="1309.5" cy="351" fill="#fffafd" rx="8" ry="8"/><ellipse cx="1449.5" cy="348.5" fill="#fffafd" rx="8" ry="8" transform="matrix(-1 0 0 -1 2899 697)"/><ellipse cx="1469.5" cy="268.5" fill="#fffafd" rx="8" ry="8" transform="matrix(-1 0 0 -1 2939 537)"/><g clip-path="url(#c)"><ellipse cx="1598" cy="261" fill="#f6edfa" rx="16" ry="16" transform="matrix(0 1 -1 0 1859 -1337)"/><ellipse cx="1679" cy="301" fill="#fcfaff" rx="16" ry="16" transform="matrix(0 -1 1 0 1378 1980)"/><ellipse cx="1599" cy="221" fill="#fcfaff" rx="16" ry="16" transform="matrix(0 1 -1 0 1820 -1378)"/><circle cx="1638" cy="341" fill="#f5fcff" r="16" transform="matrix(0 -1 1 0 1297 1979)"/><ellipse cx="1559" cy="261" fill="#f5fcff" rx="16" ry="16" transform="matrix(0 1 -1 0 1820 -1298)"/><ellipse cx="1719" cy="341" fill="#d459ab" rx="16" ry="16" transform="matrix(0 -1 1 0 1378 2060)"/><g fill="#fcfaff"><ellipse cx="1638" cy="221" rx="16" ry="16" transform="matrix(0 1 -1 0 1859 -1417)"/><ellipse cx="1638" cy="261" rx="16" ry="16" transform="matrix(0 -1 1 0 1377 1899)"/><ellipse cx="1638" cy="461" rx="16" ry="16" transform="matrix(0 1 -1 0 2099 -1177)"/></g><ellipse cx="1678" cy="101" fill="#f5fcff" rx="16" ry="16" transform="matrix(0 -1 1 0 1577 1779)"/><ellipse cx="1599" cy="421" fill="#fcfaff" rx="16" ry="16" transform="matrix(0 1 -1 0 2020 -1178)"/><ellipse cx="1638" cy="181" fill="#f5fcff" rx="16" ry="16" transform="matrix(0 -1 1 0 1457 1819)"/><ellipse cx="1559" cy="301" fill="#fcfaff" rx="16" ry="16" transform="matrix(0 1 -1 0 1860 -1258)"/><ellipse cx="1598" cy="141" fill="#fcfaff" rx="16" ry="16" transform="matrix(0 -1 1 0 1457 1739)"/><circle cx="1559" cy="461" fill="#fec21e" r="16" transform="matrix(0 1 -1 0 2020 -1098)"/><ellipse cx="1719" cy="381" fill="#f5fcff" rx="16" ry="16" transform="matrix(0 -1 1 0 1338 2100)"/><circle cx="1513" cy="141" fill="#fcfaff" r="16" transform="matrix(0 1 -1 0 1654 -1372)"/><ellipse cx="1518" cy="421" fill="#fcfaff" rx="16" ry="16" transform="matrix(0 -1 1 0 1097 1939)"/><ellipse cx="1513" cy="101" fill="#fcfaff" rx="16" ry="16" transform="matrix(0 1 -1 0 1614 -1412)"/><ellipse cx="1678" cy="461" fill="#f5fcff" rx="16" ry="16" transform="matrix(0 -1 1 0 1217 2139)"/></g><g clip-path="url(#d)"><ellipse cx="1428" cy="191" fill="#f5fcff" rx="8" ry="8" transform="matrix(0 1 -1 0 1619 -1237)"/><circle cx="1508" cy="211" fill="#f5fcff" r="8" transform="matrix(0 -1 1 0 1297 1719)"/><ellipse cx="1468" cy="171" fill="#f6edfa" rx="8" ry="8" transform="matrix(0 1 -1 0 1639 -1297)"/><ellipse cx="1468" cy="231" fill="#f5fcff" rx="8" ry="8" transform="matrix(0 -1 1 0 1237 1699)"/><ellipse cx="1408" cy="171" fill="#fffafd" rx="8" ry="8" transform="matrix(0 1 -1 0 1579 -1237)"/><ellipse cx="1528" cy="231" fill="#dbf0ff" rx="8" ry="8" transform="matrix(0 -1 1 0 1297 1759)"/><ellipse cx="1468" cy="151" fill="#f5fcff" rx="8" ry="8" transform="matrix(0 1 -1 0 1619 -1317)"/><ellipse cx="1448" cy="311" fill="#b17acc" rx="8" ry="8" transform="matrix(0 1 -1 0 1759 -1137)"/><ellipse cx="1528" cy="111" fill="#f5fcff" rx="8" ry="8" transform="matrix(0 -1 1 0 1417 1639)"/><ellipse cx="1468" cy="271" fill="#f5fcff" rx="8" ry="8" transform="matrix(0 1 -1 0 1739 -1197)"/><ellipse cx="1508" cy="151" fill="#2de3da" rx="8" ry="8" transform="matrix(0 -1 1 0 1357 1659)"/><circle cx="1468" cy="291" fill="#dbf0ff" r="8" transform="matrix(0 1 -1 0 1759 -1177)"/><ellipse cx="1508" cy="131" fill="#f6edfa" rx="8" ry="8" transform="matrix(0 -1 1 0 1377 1639)"/><g fill="#f5fcff"><ellipse cx="1448" cy="291" rx="8" ry="8" transform="matrix(0 1 -1 0 1739 -1157)"/><ellipse cx="1528" cy="131" rx="8" ry="8" transform="matrix(0 -1 1 0 1397 1659)"/><ellipse cx="1408" cy="151" rx="8" ry="8" transform="matrix(0 1 -1 0 1559 -1257)"/><ellipse cx="1528" cy="251" rx="8" ry="8" transform="matrix(0 -1 1 0 1277 1779)"/><circle cx="1425" cy="131" r="8" transform="matrix(0 1 -1 0 1556 -1294)"/><ellipse cx="1507.5" cy="271" rx="8" ry="8" transform="matrix(0 -1 1 0 1236.5 1778.5)"/><circle cx="1425" cy="111" r="8" transform="matrix(0 1 -1 0 1536 -1314)"/><ellipse cx="1507.5" cy="291" rx="8" ry="8" transform="matrix(0 -1 1 0 1216.5 1798.5)"/></g></g><g clip-path="url(#e)"><ellipse cx="1508" cy="473.5" fill="#f6edfa" rx="8" ry="8" transform="matrix(0 -1 1 0 1034.5 1981.5)"/><ellipse cx="1468" cy="433.5" fill="#fffafd" rx="8" ry="8" transform="matrix(0 1 -1 0 1901.5 -1034.5)"/><circle cx="1468" cy="493.5" fill="#fffafd" r="8" transform="matrix(0 -1 1 0 974.5 1961.5)"/><ellipse cx="1528" cy="493.5" fill="#fcfaff" rx="8" ry="8" transform="matrix(0 -1 1 0 1034.5 2021.5)"/><ellipse cx="1468" cy="413.5" fill="#f6edfa" rx="8" ry="8" transform="matrix(0 1 -1 0 1881.5 -1054.5)"/><circle cx="1548" cy="494" fill="#f5fcff" r="8" transform="matrix(0 -1 1 0 1054 2042)"/><ellipse cx="1448" cy="573.5" fill="#fffafd" rx="8" ry="8" transform="matrix(0 1 -1 0 2021.5 -874.5)"/><circle cx="1528" cy="373.5" fill="#f6edfa" r="8" transform="matrix(0 -1 1 0 1154.5 1901.5)"/><circle cx="1568" cy="514" fill="#fffafd" r="8" transform="matrix(0 1 -1 0 2082 -1054)"/><circle cx="1508" cy="413.5" fill="#fffafd" r="8" transform="matrix(0 -1 1 0 1094.5 1921.5)"/><ellipse cx="1468" cy="553.5" fill="#fcfaff" rx="8" ry="8" transform="matrix(0 1 -1 0 2021.5 -914.5)"/><ellipse cx="1508" cy="393.5" fill="#fffafd" rx="8" ry="8" transform="matrix(0 -1 1 0 1114.5 1901.5)"/><ellipse cx="1448" cy="553.5" fill="#fffafd" rx="8" ry="8" transform="matrix(0 1 -1 0 2001.5 -894.5)"/><circle cx="1528" cy="393.5" fill="#dbf0ff" r="8" transform="matrix(0 -1 1 0 1134.5 1921.5)"/><g fill="#fffafd"><ellipse cx="1408" cy="413.5" rx="8" ry="8" transform="matrix(0 1 -1 0 1821.5 -994.5)"/><ellipse cx="1528" cy="513.5" rx="8" ry="8" transform="matrix(0 -1 1 0 1014.5 2041.5)"/><ellipse cx="1425" cy="393.5" rx="8" ry="8" transform="matrix(0 1 -1 0 1818.5 -1031.5)"/></g><ellipse cx="1507.5" cy="533.5" fill="#f6edfa" rx="8" ry="8" transform="matrix(0 -1 1 0 974 2041)"/><circle cx="1425" cy="373.5" fill="#f5fcff" r="8" transform="matrix(0 1 -1 0 1798.5 -1051.5)"/><ellipse cx="1507.5" cy="553.5" fill="#fcfaff" rx="8" ry="8" transform="matrix(0 -1 1 0 954 2061)"/></g><g clip-path="url(#f)"><ellipse cx="1390" cy="474" fill="#fcfaff" rx="8" ry="8" transform="matrix(-1 0 0 -1 2780 948)"/><ellipse cx="1370" cy="554" fill="#f5fcff" rx="8" ry="8"/><ellipse cx="1410" cy="514" fill="#ff5a54" rx="8" ry="8" transform="matrix(-1 0 0 -1 2820 1028)"/><ellipse cx="1350" cy="514.002" fill="#fcfaff" rx="8" ry="8"/><ellipse cx="1410" cy="454" fill="#f5fcff" rx="8" ry="8" transform="matrix(-1 0 0 -1 2820 908)"/><ellipse cx="1350" cy="574" fill="#f5fcff" rx="8" ry="8"/><ellipse cx="1430" cy="514" fill="#f5fcff" rx="8" ry="8" transform="matrix(-1 0 0 -1 2860 1028)"/><g fill="#fcfaff"><ellipse cx="1330" cy="494" rx="8" ry="8"/><ellipse cx="1270" cy="494" rx="8" ry="8" transform="matrix(-1 0 0 -1 2540 988)"/><ellipse cx="1470" cy="574.002" rx="8" ry="8"/><ellipse cx="1310" cy="514" rx="8" ry="8" transform="matrix(-1 0 0 -1 2620 1028)"/><circle cx="1430" cy="554.002" r="8"/><ellipse cx="1290" cy="514" rx="8" ry="8" transform="matrix(-1 0 0 -1 2580 1028)"/><ellipse cx="1450" cy="554.002" rx="8" ry="8"/><ellipse cx="1330" cy="574" rx="8" ry="8"/></g><circle cx="1450" cy="471" fill="#dbf0ff" r="8" transform="matrix(-1 0 0 -1 2900 942)"/><circle cx="1310" cy="553.5" fill="#f5fcff" r="8"/><ellipse cx="1470" cy="471" fill="#f5fcff" rx="8" ry="8" transform="matrix(-1 0 0 -1 2940 942)"/></g></g></svg>